<?xml version="1.0" encoding="utf-8"?>
<svg width="872px" height="236px" viewBox="0 0 872 236" version="1.1" xmlns:xlink="http://www.w3.org/1999/xlink" xmlns="http://www.w3.org/2000/svg">
  <desc>Created with Lunacy</desc>
  <path d="M425.564 124.451C425.564 146.785 423.677 166.274 419.903 182.92C416.13 199.566 410.784 212.272 403.865 221.038C396.947 229.804 388.875 234.188 379.651 234.188C370.636 234.188 362.643 229.778 355.672 220.96Q345.216 207.732 339.438 183.233Q333.659 158.734 333.502 126.486L333.502 110.049C333.502 88.1334 335.415 68.7743 339.241 51.9721Q344.98 26.7688 355.476 13.3844Q365.971 0 379.494 0Q393.252 0 403.747 13.2278C410.744 22.0464 416.13 34.8307 419.903 51.5807C423.677 68.3308 425.564 87.8203 425.564 110.049L425.564 124.451ZM74.2939 171.414L26.337 171.414L15.5663 231.057L0 231.057L43.7115 3.13086L56.9193 3.13086L100.71 231.057L85.2218 231.057L74.2939 171.414ZM118.243 3.13086L118.243 231.057L157.945 231.057C170.105 231.057 179.513 225.212 186.169 213.524Q196.153 195.991 196.153 165.309C196.153 151.951 194.358 140.445 190.768 130.791C187.178 121.138 182.29 114.589 176.106 111.145C181.347 106.658 185.488 100.318 188.527 92.1252C191.567 83.9329 193.087 74.5142 193.087 63.8693Q193.087 33.8132 183.692 18.472Q174.298 3.13086 155.665 3.13086L118.243 3.13086ZM308.579 231.057L293.406 231.057L235.779 55.416L235.779 231.057L220.605 231.057L220.605 3.13086L235.779 3.13086L293.563 179.554L293.563 3.13086L308.579 3.13086L308.579 231.057ZM492.312 138.853L465.425 138.853L465.425 231.057L450.252 231.057L450.252 3.13086L488.146 3.13086C501.039 3.13086 510.958 8.97511 517.902 20.6636Q528.319 38.1964 528.319 71.6965Q528.319 92.9863 522.541 108.797C518.689 119.338 513.329 127.217 506.464 132.435L533.351 229.178L533.351 231.057L517.156 231.057L492.312 138.853ZM608.511 189.103L571.089 3.13086L551.592 3.13086L551.592 231.057L566.686 231.057L566.686 142.297L565.193 46.9627L602.693 231.057L614.25 231.057L651.83 46.4931L650.414 142.297L650.414 231.057L665.509 231.057L665.509 3.13086L645.933 3.13086L608.511 189.103ZM709.537 171.414L757.494 171.414L768.422 231.057L783.909 231.057L740.119 3.13086L726.911 3.13086L683.2 231.057L698.766 231.057L709.537 171.414ZM816.616 206.48L870.863 206.48L870.863 231.057L801.443 231.057L801.443 3.13086L816.616 3.13086L816.616 206.48ZM402.372 47.5106C407.822 61.9647 410.548 82.7066 410.548 109.736L410.548 126.643C410.391 153.046 407.639 173.319 402.293 187.46C396.947 201.601 389.4 208.671 379.651 208.671C369.955 208.671 362.342 201.183 356.813 186.207C351.283 171.231 348.518 150.646 348.518 124.451L348.518 107.701Q348.754 69.1917 356.97 47.5106C362.447 33.0565 369.955 25.8295 379.494 25.8295C389.295 25.8295 396.921 33.0565 402.372 47.5106ZM156.137 100.344L133.338 100.344L133.338 27.708L155.665 27.708C163.16 27.708 168.742 30.558 172.411 36.2579C176.08 41.9579 177.914 51.0834 177.914 63.6345C177.914 74.93 175.936 83.8721 171.978 90.4607C168.021 97.0494 162.741 100.344 156.137 100.344ZM488.617 114.276L465.425 114.276L465.425 27.708L488.539 27.708C496.505 27.8124 502.598 31.6285 506.817 39.1564C511.036 46.6843 513.146 57.5049 513.146 71.6182C513.146 84.5835 510.932 94.9344 506.503 102.671Q499.86 114.276 488.617 114.276ZM69.8127 146.837L30.8969 146.837L50.3155 40.2314L69.8127 146.837ZM714.097 146.837L753.013 146.837L733.516 40.2314L714.097 146.837ZM133.338 124.451L133.338 206.479L158.26 206.479C165.283 206.479 170.825 202.853 174.887 195.6Q180.98 184.72 180.98 165.622Q180.98 124.451 158.495 124.451L133.338 124.451Z" transform="matrix(-1 0 0 1 871.3628 0.5)" id="ABNORMAL" fill="#FFFFFF" fill-rule="evenodd" stroke="#000000" stroke-width="1" />
</svg>