<?xml version="1.0" encoding="utf-8"?>
<svg width="1100px" height="2933px" viewBox="0 0 1100 2933" version="1.1" xmlns:xlink="http://www.w3.org/1999/xlink" xmlns="http://www.w3.org/2000/svg">
  <desc>Created with Lunacy</desc>
  <g id="Grid">
    <path d="M0 0L1 0L1 2933L0 2933L0 0Z" id="Line" fill="#EDEDED" stroke="none" />
    <path d="M0 0L1 0L1 2933L0 2933L0 0Z" transform="translate(275 0)" id="Line" fill="#EDEDED" stroke="none" />
    <path d="M0 0L1 0L1 2933L0 2933L0 0Z" transform="translate(824 0)" id="Line" fill="#EDEDED" stroke="none" />
    <path d="M0 0L1 0L1 2933L0 2933L0 0Z" transform="translate(550 0)" id="Line" fill="#EDEDED" stroke="none" />
    <path d="M0 0L1 0L1 2933L0 2933L0 0Z" transform="translate(1099 0)" id="Line" fill="#EDEDED" stroke="none" />
  </g>
</svg>