<?xml version="1.0" encoding="utf-8"?>
<svg width="365px" height="380px" viewBox="0 0 365 380" version="1.1" xmlns:xlink="http://www.w3.org/1999/xlink" xmlns="http://www.w3.org/2000/svg">
  <desc>Created with Lunacy</desc>
  <g id="logo-w-c" transform="translate(4.5 4.5)">
    <path d="M0 0L356 0L356 371L0 371L0 0Z" id="Background" fill="none" stroke="none" />
    <g id="Group-Copy-2">
      <path d="M0 185.5C0 83.0512 79.6933 0 178 0C276.307 0 356 83.0512 356 185.5C356 287.949 276.307 371 178 371C79.6933 371 0 287.949 0 185.5L0 185.5Z" id="Ellipse" fill="#FFFFFF" stroke="none" />
      <path d="M87.5872 29.5641L87.5872 8.35203L56.4966 8.35204L56.4966 1.52588e-05L95.7906 0L95.7906 30.0672L134.502 32.4415L130.247 43.7964L136.027 44.1509L136.546 32.5668L134.502 32.4415L146.286 1.00022L154.407 1.00021L179.673 68.2002L170.813 68.2002L150.141 13.0002L129.305 68.2002L121.102 68.2002L130.247 43.7964L95.7906 41.6832L95.7906 67.2002L87.5873 67.2002L87.5873 41.18L95.7903 41.6832L95.7903 30.0672L87.5872 29.5641ZM14.9298 66.5044Q21.9025 70.9684 30.5979 70.9684Q39.2112 70.9684 46.1839 66.5044C50.8323 63.5284 57.0941 54.2164 57.0941 54.2164L57.0942 54.2162C57.8283 52.7575 57.9464 52.5227 57.8793 52.4419C57.8664 52.4264 57.8467 52.4166 57.8232 52.4048C57.5316 52.2591 56.6566 51.8217 61.0316 36.6004C61.0316 30.0724 59.7191 24.2004 57.0941 18.9844C54.4691 13.7684 50.8323 9.67241 46.1839 6.69642Q39.2112 2.23243 30.5979 2.23242Q21.9025 2.23243 14.9298 6.69642Q7.95708 11.1604 3.97854 19.0324Q0 26.9044 0 36.6004Q0 46.2964 3.97854 54.1684Q7.95708 62.0404 14.9298 66.5044ZM246.624 70.496L258.701 49.606C260.235 49.7028 261.439 49.7422 262.313 49.7243L276.503 49.4344L276.808 69.8794L285.01 69.7119L284.007 2.52185L261.616 2.97924C254.179 3.13115 248.36 5.33035 244.157 9.57686C239.953 13.8234 237.907 19.5941 238.015 26.889C238.093 32.0722 239.252 36.4652 241.494 40.068C243.735 43.6708 246.892 46.2627 250.963 47.8438L237.684 70.6786L246.624 70.496ZM227.311 70.2002L227.311 61.8483L193.842 61.8483L193.842 40.1522L222.634 40.1522L222.634 31.9922L193.842 31.9922L193.842 11.3522L226.161 11.3522L226.161 3.00024L185.638 3.00024L185.638 70.2002L227.311 70.2002ZM41.9594 59.0644C38.5961 61.3044 34.809 62.4244 30.598 62.4244C26.387 62.4244 22.5726 61.3044 19.1546 59.0644C12.5009 50.2644 12.0088 50.8297 11.8447 51.0181C11.7627 51.1124 11.7627 51.1124 11.1155 49.8004C11.1155 49.8004 8.20337 41.4644 8.20337 36.6004C11.439 25.1764 10.7919 24.867 10.5762 24.7639C10.559 24.7557 10.5446 24.7488 10.535 24.7377C10.4848 24.679 10.5716 24.5031 11.1154 23.4006L11.1155 23.4004C11.1155 23.4004 15.7366 16.3764 19.1546 14.1364Q24.2816 10.7764 30.598 10.7764C34.809 10.7764 38.5961 11.8964 41.9594 14.1364C45.3227 16.3764 47.9751 19.4644 49.9165 23.4004Q52.8286 29.3044 52.8286 36.6004C52.8286 41.4644 51.8579 45.8644 49.9165 49.8004C47.975 53.7364 45.3227 56.8244 41.9594 59.0644ZM261.573 41.5691C256.379 41.6752 252.395 40.4444 249.621 37.8767C246.848 35.3089 245.425 31.5934 245.353 26.7301C245.281 21.8668 246.592 18.1115 249.287 15.464C251.983 12.8165 255.927 11.4398 261.123 11.3337L275.066 11.0488L275.517 41.2843L261.573 41.5691ZM87.587 41.18L87.5869 29.5641L79.2008 29.0498L78.6821 40.6339L87.587 41.18Z" transform="translate(41.14282 150.8997)" id="OLIVER-Copy" fill="#000000" style="mix-blend-mode: darken;" fill-rule="evenodd" stroke="#000000" stroke-width="9" />
      <g id="&lt;/&gt;" transform="translate(155.8799 82.57202)">
        <path d="M18.552 41.544C18.728 41.688 18.928 41.76 19.152 41.76L20.928 41.76C21.504 41.76 21.968 41.488 22.32 40.944L47.232 1.392C47.392 1.136 47.472 0.912 47.472 0.72C47.472 0.496 47.392 0.32 47.232 0.192C47.072 0.0640001 46.864 0 46.608 0L44.832 0Q43.968 0 43.44 0.816L18.528 40.368Q18.288 40.752 18.288 40.992C18.288 41.216 18.376 41.4 18.552 41.544ZM14.832 34.272Q14.448 34.272 13.776 33.744L0.96 23.424C0.32 22.912 0 22.352 0 21.744C0 21.552 0.016 21.392 0.0479999 21.264L0.192 20.448C0.288 20 0.48 19.608 0.768 19.272C1.056 18.936 1.488 18.592 2.064 18.24L19.248 7.92C19.344 7.888 19.536 7.8 19.824 7.656C20.112 7.512 20.352 7.44 20.544 7.44C20.832 7.44 21.048 7.528 21.192 7.704C21.336 7.88 21.376 8.112 21.312 8.4L20.88 10.368Q20.736 10.896 20.424 11.232C20.216 11.456 19.888 11.696 19.44 11.952L4.608 20.832L15.696 29.712C16.048 30.032 16.28 30.296 16.392 30.504C16.504 30.712 16.512 30.976 16.416 31.296L15.984 33.264C15.952 33.552 15.824 33.792 15.6 33.984C15.376 34.176 15.12 34.272 14.832 34.272ZM46.608 34.272C46.352 34.272 46.152 34.184 46.008 34.008C45.864 33.832 45.808 33.584 45.84 33.264L46.272 31.296C46.336 30.944 46.472 30.664 46.68 30.456C46.888 30.248 47.232 30 47.712 29.712L62.544 20.832L51.504 11.952C51.152 11.696 50.912 11.456 50.784 11.232C50.656 11.008 50.624 10.72 50.688 10.368L51.12 8.4C51.184 8.08 51.328 7.84 51.552 7.68Q51.888 7.44 52.32 7.44C52.512 7.44 52.712 7.512 52.92 7.656C53.128 7.8 53.264 7.888 53.328 7.92L66.144 18.24C66.496 18.528 66.752 18.808 66.912 19.08C67.072 19.352 67.152 19.648 67.152 19.968C67.152 20.16 67.136 20.32 67.104 20.448L66.912 21.264C66.816 21.68 66.624 22.056 66.336 22.392C66.048 22.728 65.632 23.072 65.088 23.424L47.904 33.744C47.296 34.096 46.864 34.272 46.608 34.272Z" id="Shape" fill="#000000" fill-rule="evenodd" stroke="none" />
      </g>
      <g id="&lt;/&gt;" transform="translate(146.8799 252.572)">
        <path d="M18.552 41.544C18.728 41.688 18.928 41.76 19.152 41.76L20.928 41.76C21.504 41.76 21.968 41.488 22.32 40.944L47.232 1.392C47.392 1.136 47.472 0.912 47.472 0.72C47.472 0.496 47.392 0.32 47.232 0.192C47.072 0.0640001 46.864 0 46.608 0L44.832 0Q43.968 0 43.44 0.816L18.528 40.368Q18.288 40.752 18.288 40.992C18.288 41.216 18.376 41.4 18.552 41.544ZM14.832 34.272Q14.448 34.272 13.776 33.744L0.96 23.424C0.32 22.912 0 22.352 0 21.744C0 21.552 0.016 21.392 0.0479999 21.264L0.192 20.448C0.288 20 0.48 19.608 0.768 19.272C1.056 18.936 1.488 18.592 2.064 18.24L19.248 7.92C19.344 7.888 19.536 7.8 19.824 7.656C20.112 7.512 20.352 7.44 20.544 7.44C20.832 7.44 21.048 7.528 21.192 7.704C21.336 7.88 21.376 8.112 21.312 8.4L20.88 10.368Q20.736 10.896 20.424 11.232C20.216 11.456 19.888 11.696 19.44 11.952L4.608 20.832L15.696 29.712C16.048 30.032 16.28 30.296 16.392 30.504C16.504 30.712 16.512 30.976 16.416 31.296L15.984 33.264C15.952 33.552 15.824 33.792 15.6 33.984C15.376 34.176 15.12 34.272 14.832 34.272ZM46.608 34.272C46.352 34.272 46.152 34.184 46.008 34.008C45.864 33.832 45.808 33.584 45.84 33.264L46.272 31.296C46.336 30.944 46.472 30.664 46.68 30.456C46.888 30.248 47.232 30 47.712 29.712L62.544 20.832L51.504 11.952C51.152 11.696 50.912 11.456 50.784 11.232C50.656 11.008 50.624 10.72 50.688 10.368L51.12 8.4C51.184 8.08 51.328 7.84 51.552 7.68Q51.888 7.44 52.32 7.44C52.512 7.44 52.712 7.512 52.92 7.656C53.128 7.8 53.264 7.888 53.328 7.92L66.144 18.24C66.496 18.528 66.752 18.808 66.912 19.08C67.072 19.352 67.152 19.648 67.152 19.968C67.152 20.16 67.136 20.32 67.104 20.448L66.912 21.264C66.816 21.68 66.624 22.056 66.336 22.392C66.048 22.728 65.632 23.072 65.088 23.424L47.904 33.744C47.296 34.096 46.864 34.272 46.608 34.272Z" id="Shape" fill="#000000" fill-rule="evenodd" stroke="#000000" stroke-width="1" />
      </g>
    </g>
  </g>
</svg>